<?xml version="1.0" standalone="no"?><!DOCTYPE svg PUBLIC "-//W3C//DTD SVG 1.1//EN"
        "http://www.w3.org/Graphics/SVG/1.1/DTD/svg11.dtd">
<svg t="1726997347275" class="icon" viewBox="0 0 1024 1024" version="1.1" xmlns="http://www.w3.org/2000/svg" p-id="8371"
     width="200" height="200">
    <path d="M512 85.333333a42.666667 42.666667 0 0 1 42.666667 42.666667v103.253333l277.162666 158.378667A42.666667 42.666667 0 0 1 853.333333 426.666667v314.965333l104.405334 52.224a42.666667 42.666667 0 1 1-38.144 76.288l-107.605334-53.76-278.826666 159.317333a42.666667 42.666667 0 0 1-42.325334 0l-278.826666-159.317333-107.605334 53.76a42.666667 42.666667 0 1 1-38.144-76.288L170.666667 741.632V426.666667a42.666667 42.666667 0 0 1 21.504-37.034667L469.333333 231.253333V128a42.666667 42.666667 0 0 1 42.666667-42.666667z m0 219.818667L299.349333 426.666667 512 548.181333 724.650667 426.666667 512 305.152z m256 195.029333l-213.333333 121.898667v243.072l213.333333-121.898667v-243.072z m-298.666667 364.970667V622.08l-213.333333-121.898667v243.072l213.333333 121.898667z"
          fill="#020101" fill-opacity=".85" p-id="8372"></path>
</svg>