<?xml version="1.0" standalone="no"?><!DOCTYPE svg PUBLIC "-//W3C//DTD SVG 1.1//EN"
        "http://www.w3.org/Graphics/SVG/1.1/DTD/svg11.dtd">
<svg t="1726996214506" class="icon" viewBox="0 0 896 896" transform="translate(-13, -13)" version="1.1" xmlns="http://www.w3.org/2000/svg" p-id="5525"
     width="200" height="200">
    <path d="M208.979592 114.938776h146.285714c3.448163 0 6.791837 0.626939 10.031021 1.985306 3.134694 1.358367 6.060408 3.239184 8.463673 5.642449 2.403265 2.403265 4.284082 5.32898 5.642449 8.463673 1.358367 3.239184 1.985306 6.582857 1.985306 10.03102 0 3.448163-0.626939 6.791837-1.985306 10.031021-1.358367 3.134694-3.239184 6.060408-5.642449 8.463673-2.403265 2.403265-5.32898 4.284082-8.463673 5.642449-3.239184 1.358367-6.582857 1.985306-10.031021 1.985306H219.428571c-28.839184 0-52.244898 23.405714-52.244898 52.244898v135.836735c0 3.448163-0.626939 6.791837-1.985306 10.031021-1.358367 3.134694-3.239184 6.060408-5.642449 8.463673-2.403265 2.403265-5.32898 4.284082-8.463673 5.642449-3.239184 1.358367-6.582857 1.985306-10.031021 1.985306-3.448163 0-6.791837-0.626939-10.03102-1.985306-3.134694-1.358367-6.060408-3.239184-8.463673-5.642449-2.403265-2.403265-4.284082-5.32898-5.642449-8.463673-1.358367-3.239184-1.985306-6.582857-1.985306-10.031021V208.979592a94.040816 94.040816 0 0 1 94.040816-94.040816z m441.260408 44.617142c-2.403265-2.403265-4.284082-5.32898-5.642449-8.463673-1.358367-3.239184-1.985306-6.582857-1.985306-10.031021 0-3.448163 0.626939-6.791837 1.985306-10.03102 1.358367-3.134694 3.239184-6.060408 5.642449-8.463673 2.403265-2.403265 5.32898-4.284082 8.463673-5.642449 3.239184-1.358367 6.582857-1.985306 10.031021-1.985306h146.285714a94.040816 94.040816 0 0 1 94.040816 94.040816v146.285714h-52.244897V219.428571c0-28.839184-23.405714-52.244898-52.244898-52.244898H668.734694c-3.448163 0-6.791837-0.626939-10.031021-1.985306-3.134694-1.358367-6.060408-3.239184-8.463673-5.642449z m256.835918 205.740409c-1.358367 3.134694-3.239184 6.060408-5.642449 8.463673-2.403265 2.403265-5.32898 4.284082-8.463673 5.642449-3.239184 1.358367-6.582857 1.985306-10.03102 1.985306-3.448163 0-6.791837-0.626939-10.031021-1.985306-3.134694-1.358367-6.060408-3.239184-8.463673-5.642449-2.403265-2.403265-4.284082-5.32898-5.642449-8.463673-1.358367-3.239184-1.985306-6.582857-1.985306-10.031021h52.244897c0 3.448163-0.626939 6.791837-1.985306 10.031021z m-5.642449 284.943673c2.403265 2.403265 4.284082 5.32898 5.642449 8.463673 1.358367 3.239184 1.985306 6.582857 1.985306 10.031021h-52.244897c0-3.448163 0.626939-6.791837 1.985306-10.031021 1.358367-3.134694 3.239184-6.060408 5.642449-8.463673 2.403265-2.403265 5.32898-4.284082 8.463673-5.642449 3.239184-1.358367 6.582857-1.985306 10.031021-1.985306 3.448163 0 6.791837 0.626939 10.03102 1.985306 3.134694 1.358367 6.060408 3.239184 8.463673 5.642449z m-741.877551 0c2.403265 2.403265 4.284082 5.32898 5.642449 8.463673 1.358367 3.239184 1.985306 6.582857 1.985306 10.031021v135.836735c0 28.839184 23.405714 52.244898 52.244898 52.244898h135.836735c3.448163 0 6.791837 0.626939 10.031021 1.985306 3.134694 1.358367 6.060408 3.239184 8.463673 5.642449 2.403265 2.403265 4.284082 5.32898 5.642449 8.463673 1.358367 3.239184 1.985306 6.582857 1.985306 10.031021 0 3.448163-0.626939 6.791837-1.985306 10.03102-1.358367 3.134694-3.239184 6.060408-5.642449 8.463673-2.403265 2.403265-5.32898 4.284082-8.463673 5.642449-3.239184 1.358367-6.582857 1.985306-10.031021 1.985306H208.979592a94.040816 94.040816 0 0 1-94.040816-94.040816V668.734694c0-3.448163 0.626939-6.791837 1.985306-10.031021 1.358367-3.134694 3.239184-6.060408 5.642449-8.463673 2.403265-2.403265 5.32898-4.284082 8.463673-5.642449 3.239184-1.358367 6.582857-1.985306 10.03102-1.985306 3.448163 0 6.791837 0.626939 10.031021 1.985306 3.134694 1.358367 6.060408 3.239184 8.463673 5.642449zM856.816327 804.571429V668.734694h52.244897v146.285714a94.040816 94.040816 0 0 1-94.040816 94.040816H668.734694c-3.448163 0-6.791837-0.626939-10.031021-1.985306-3.134694-1.358367-6.060408-3.239184-8.463673-5.642449-2.403265-2.403265-4.284082-5.32898-5.642449-8.463673-1.358367-3.239184-1.985306-6.582857-1.985306-10.03102 0-3.448163 0.626939-6.791837 1.985306-10.031021 1.358367-3.134694 3.239184-6.060408 5.642449-8.463673 2.403265-2.403265 5.32898-4.284082 8.463673-5.642449 3.239184-1.358367 6.582857-1.985306 10.031021-1.985306h135.836735c28.839184 0 52.244898-23.405714 52.244898-52.244898zM595.591837 355.265306c-4.179592-5.22449-6.791837-10.44898-8.359184-14.419592-1.671837-3.970612-5.642449-6.582857-10.03102-6.478367h-121.208164c-10.13551 0.835918-19.226122 6.687347-23.928163 15.777959-1.044898 1.671837-2.298776 3.343673-3.657143 5.12-4.493061 5.537959-13.061224 14.106122-20.16653 20.897959H334.367347c-23.092245 0-41.795918 18.703673-41.795918 41.795919v208.979592c0 23.092245 18.703673 41.795918 41.795918 41.795918h355.265306c23.092245 0 41.795918-18.703673 41.795918-41.795918V417.959184c0-23.092245-18.703673-41.795918-41.795918-41.795919h-73.874286c-7.105306-6.791837-15.673469-15.36-20.16653-20.897959z"
          fill="#020101" p-id="5528"></path>
    <path d="M407.510204 512c0-57.678367 46.811429-104.489796 104.489796-104.489796s104.489796 46.811429 104.489796 104.489796-46.811429 104.489796-104.489796 104.489796-104.489796-46.811429-104.489796-104.489796z m31.346939 0c0 40.437551 32.705306 73.142857 73.142857 73.142857s73.142857-32.705306 73.142857-73.142857-32.705306-73.142857-73.142857-73.142857-73.142857 32.705306-73.142857 73.142857z"
          fill="#FEFEFE" p-id="5529"></path>
</svg>